name analog
datacolumns 19
datarows 47
range 0.363 0.386
endheader
time	ground_force_vx	ground_force_vy	ground_force_vz	ground_force_px	ground_force_py	ground_force_pz	l_ground_force_vx	l_ground_force_vy	l_ground_force_vz	l_ground_force_px	l_ground_force_py	l_ground_force_pz	ground_torque_x	ground_torque_y	ground_torque_z	l_ground_torque_x	l_ground_torque_y	l_ground_torque_z
0.363	-0.0	-0.0	-0.0	-0.0	-0.0	-0.0	-2.704368352890014	1.9859330654144287	-512.3851928710938	-0.0	-0.0	-0.0	-0.0	-0.0	-0.0	152054.21875	36837.00390625	-657.533935546875
0.3635	-0.0	-0.0	-0.0	-0.0	-0.0	-0.0	-2.4814348220825195	1.3248252868652344	-511.5265502929688	-0.0	-0.0	-0.0	-0.0	-0.0	-0.0	151669.703125	36840.7734375	-637.9677124023438
0.364	-0.0	-0.0	-0.0	-0.0	-0.0	-0.0	-2.661323547363281	1.0214996337890625	-511.6679382324219	-0.0	-0.0	-0.0	-0.0	-0.0	-0.0	152014.84375	37160.96484375	-582.8093872070312
0.3645	-0.0	-0.0	-0.0	-0.0	-0.0	-0.0	-3.1026649475097656	1.3766961097717283	-511.6686401367188	-0.0	-0.0	-0.0	-0.0	-0.0	-0.0	151864.796875	36923.2265625	-624.8017578125
0.365	-0.0	-0.0	-0.0	-0.0	-0.0	-0.0	-3.1502621173858643	1.548703670501709	-513.415283203125	-0.0	-0.0	-0.0	-0.0	-0.0	-0.0	151983.859375	37126.9140625	-713.095703125
0.3655	-0.0	-0.0	-0.0	-0.0	-0.0	-0.0	-2.440507411956787	1.7645207643508911	-512.376220703125	-0.0	-0.0	-0.0	-0.0	-0.0	-0.0	152037.390625	37109.078125	-490.4228820800781
0.366	-0.0	-0.0	-0.0	-0.0	-0.0	-0.0	-2.221341371536255	1.5447404384613037	-514.6705322265625	-0.0	-0.0	-0.0	-0.0	-0.0	-0.0	152051.375	37182.29296875	-280.90576171875
0.3665	-0.0	-0.0	-0.0	-0.0	-0.0	-0.0	-1.730685114860535	0.7449862957000732	-514.8338012695312	-0.0	-0.0	-0.0	-0.0	-0.0	-0.0	152032.375	37033.68359375	-312.23828125
0.367	-0.0	-0.0	-0.0	-0.0	-0.0	-0.0	-1.5050203800201416	-0.308363527059555	-515.1882934570312	-0.0	-0.0	-0.0	-0.0	-0.0	-0.0	151860.375	36928.828125	-356.60504150390625
0.3675	-0.0	-0.0	-0.0	-0.0	-0.0	-0.0	-0.9758186340332032	-0.706573486328125	-515.5359497070312	-0.0	-0.0	-0.0	-0.0	-0.0	-0.0	152278.6875	37364.484375	-237.7252349853516
0.368	-0.0	-0.0	-0.0	-0.0	-0.0	-0.0	-0.8895888328552246	-0.3968300521373749	-517.7967529296875	-0.0	-0.0	-0.0	-0.0	-0.0	-0.0	152556.96875	37255.1953125	-90.55521392822266
0.3685	-0.0	-0.0	-0.0	-0.0	-0.0	-0.0	-0.8893536329269409	-0.664089560508728	-518.8348999023438	-0.0	-0.0	-0.0	-0.0	-0.0	-0.0	152409.796875	37108.86328125	-1.1766682863235474
0.369	-0.0	-0.0	-0.0	-0.0	-0.0	-0.0	-0.4445226788520813	-0.706573486328125	-517.4503173828125	-0.0	-0.0	-0.0	-0.0	-0.0	-0.0	152708.65625	37511.59375	14.174437522888184
0.3695	-0.0	-0.0	-0.0	-0.0	-0.0	-0.0	-0.7536258697509766	-1.1506656408309937	-518.6663818359375	-0.0	-0.0	-0.0	-0.0	-0.0	-0.0	152601.421875	37406.73046875	-60.99053192138672
0.37	-0.0	-0.0	-0.0	-0.0	-0.0	-0.0	-0.7983970642089844	-1.060552954673767	-517.621337890625	-0.0	-0.0	-0.0	-0.0	-0.0	-0.0	152563.03125	37607.9609375	-15.785557746887209
0.3705	-0.0	-0.0	-0.0	-0.0	-0.0	-0.0	-0.8419127464294434	-1.4564718008041382	-519.7155151367188	-0.0	-0.0	-0.0	-0.0	-0.0	-0.0	152585.640625	37460.92578125	132.80026245117188
0.371	-0.0	-0.0	-0.0	-0.0	-0.0	-0.0	-0.8438584208488464	-1.3709681034088137	-518.31298828125	-0.0	-0.0	-0.0	-0.0	-0.0	-0.0	152350.234375	37605.78515625	177.3317108154297
0.3715	-0.0	-0.0	-0.0	-0.0	-0.0	-0.0	-1.1087406873703003	-1.2359296083450315	-517.2698364257812	-0.0	-0.0	-0.0	-0.0	-0.0	-0.0	151978.0625	37475.1953125	206.5458221435547
0.372	-0.0	-0.0	-0.0	-0.0	-0.0	-0.0	-1.2422537803649902	-1.0598602294921875	-517.6163330078125	-0.0	-0.0	-0.0	-0.0	-0.0	-0.0	151507.03125	37438.2890625	161.8223419189453
0.3725	-0.0	-0.0	-0.0	-0.0	-0.0	-0.0	-1.5523191690444946	-1.0155802965164185	-516.7448120117188	-0.0	-0.0	-0.0	-0.0	-0.0	-0.0	151239.90625	37362.91015625	206.28631591796875
0.373	-0.0	-0.0	-0.0	-0.0	-0.0	-0.0	-1.4196125268936155	-1.1038419008255005	-516.744873046875	-0.0	-0.0	-0.0	-0.0	-0.0	-0.0	151245.234375	37341.15234375	310.0821228027344
0.3735	-0.0	-0.0	-0.0	-0.0	-0.0	-0.0	-0.7099435925483704	-1.457435965538025	-517.6168212890625	-0.0	-0.0	-0.0	-0.0	-0.0	-0.0	150802.3125	37322.78515625	562.569580078125
0.374	-0.0	-0.0	-0.0	-0.0	-0.0	-0.0	-0.3114708065986633	-2.0757553577423096	-518.4901123046875	-0.0	-0.0	-0.0	-0.0	-0.0	-0.0	150738.28125	36938.78515625	888.9094848632812
0.3745	-0.0	-0.0	-0.0	-0.0	-0.0	-0.0	0.3548431396484375	-2.2968904972076416	-518.14306640625	-0.0	-0.0	-0.0	-0.0	-0.0	-0.0	150652.5	36974.94140625	1007.7156982421876
0.375	-0.0	-0.0	-0.0	-0.0	-0.0	-0.0	1.1972721815109253	-2.957810640335083	-518.1461181640625	-0.0	-0.0	-0.0	-0.0	-0.0	-0.0	150324.96875	36496.4375	1409.033935546875
0.3755	-0.0	-0.0	-0.0	-0.0	-0.0	-0.0	1.3770195245742798	-3.798629999160767	-518.3077392578125	-0.0	-0.0	-0.0	-0.0	-0.0	-0.0	150141.421875	36596.890625	1468.25048828125
0.376	-0.0	-0.0	-0.0	-0.0	-0.0	-0.0	1.1952502727508545	-4.061863422393799	-517.964599609375	-0.0	-0.0	-0.0	-0.0	-0.0	-0.0	149793.15625	36233.8125	1350.31640625
0.3765	-0.0	-0.0	-0.0	-0.0	-0.0	-0.0	1.1938998699188232	-4.195805549621582	-516.5677490234375	-0.0	-0.0	-0.0	-0.0	-0.0	-0.0	149535.671875	36089.4921875	1363.269775390625
0.377	-0.0	-0.0	-0.0	-0.0	-0.0	-0.0	1.4607027769088743	-4.152324199676514	-515.1755981445312	-0.0	-0.0	-0.0	-0.0	-0.0	-0.0	149431.234375	35930.1640625	1408.014404296875
0.3775	-0.0	-0.0	-0.0	-0.0	-0.0	-0.0	1.4153320789337158	-4.282931327819824	-517.4373779296875	-0.0	-0.0	-0.0	-0.0	-0.0	-0.0	149573.03125	35721.625	1451.6551513671875
0.378	-0.0	-0.0	-0.0	-0.0	-0.0	-0.0	1.9486712217330933	-5.076282024383545	-515.85693359375	-0.0	-0.0	-0.0	-0.0	-0.0	-0.0	149085.5	35405.3515625	1392.8187255859375
0.3785	-0.0	-0.0	-0.0	-0.0	-0.0	-0.0	2.2177696228027344	-5.474332809448242	-516.236572265625	-0.0	-0.0	-0.0	-0.0	-0.0	-0.0	148740.3125	35274.49609375	1528.1553955078125
0.379	-0.0	-0.0	-0.0	-0.0	-0.0	-0.0	2.3499677181243896	-6.000689029693604	-513.60205078125	-0.0	-0.0	-0.0	-0.0	-0.0	-0.0	148342.515625	34699.4921875	1632.2498779296875
0.3795	-0.0	-0.0	-0.0	-0.0	-0.0	-0.0	3.0633575916290283	-6.011520862579346	-513.7803344726562	-0.0	-0.0	-0.0	-0.0	-0.0	-0.0	148345.875	34649.97265625	1663.102294921875
0.38	-0.0	-0.0	-0.0	-0.0	-0.0	-0.0	3.321587085723877	-5.872383117675781	-511.5390319824219	-0.0	-0.0	-0.0	-0.0	-0.0	-0.0	148333.640625	34344.35546875	1721.385009765625
0.3805	-0.0	-0.0	-0.0	-0.0	-0.0	-0.0	3.5981502532958984	-5.878732204437256	-511.8562622070313	-0.0	-0.0	-0.0	-0.0	-0.0	-0.0	148169.8125	34131.26171875	1810.572265625
0.381	-0.0	-0.0	-0.0	-0.0	-0.0	-0.0	3.948779821395874	-5.337738037109375	-512.2326049804688	-0.0	-0.0	-0.0	-0.0	-0.0	-0.0	148277.234375	33646.77734375	1971.419921875
0.3815	-0.0	-0.0	-0.0	-0.0	-0.0	-0.0	4.387529373168945	-4.685900688171387	-511.8179321289063	-0.0	-0.0	-0.0	-0.0	-0.0	-0.0	148339.21875	33587.359375	2003.845458984375
0.382	-0.0	-0.0	-0.0	-0.0	-0.0	-0.0	4.612960815429688	-4.279759883880615	-512.744384765625	-0.0	-0.0	-0.0	-0.0	-0.0	-0.0	148377.84375	33608.40234375	2048.152099609375
0.3825	-0.0	-0.0	-0.0	-0.0	-0.0	-0.0	4.924802303314209	-4.456201553344727	-512.9036865234375	-0.0	-0.0	-0.0	-0.0	-0.0	-0.0	148391.59375	33442.64453125	2019.5252685546875
0.383	-0.0	-0.0	-0.0	-0.0	-0.0	-0.0	4.572842597961426	-4.236628532409668	-512.1942749023438	-0.0	-0.0	-0.0	-0.0	-0.0	-0.0	148542.96875	33368.4609375	2095.852294921875
0.3835	-0.0	-0.0	-0.0	-0.0	-0.0	-0.0	3.814563751220703	-4.370440483093262	-512.5780639648438	-0.0	-0.0	-0.0	-0.0	-0.0	-0.0	148225.015625	33380.99609375	2018.757568359375
0.384	-0.0	-0.0	-0.0	-0.0	-0.0	-0.0	3.4628360271453857	-4.282051086425781	-511.1702575683594	-0.0	-0.0	-0.0	-0.0	-0.0	-0.0	147918.765625	33222.81640625	1987.8240966796875
0.3845	-0.0	-0.0	-0.0	-0.0	-0.0	-0.0	2.9306886196136475	-3.8436026573181152	-511.35162353515625	-0.0	-0.0	-0.0	-0.0	-0.0	-0.0	147726.046875	33131.21875	1914.9791259765625
0.385	-0.0	-0.0	-0.0	-0.0	-0.0	-0.0	3.150926351547241	-3.882782220840454	-509.3855590820313	-0.0	-0.0	-0.0	-0.0	-0.0	-0.0	148056.78125	33112.75	1971.08203125
0.3855	-0.0	-0.0	-0.0	-0.0	-0.0	-0.0	3.111924648284912	-3.8048486709594727	-511.8840026855469	-0.0	-0.0	-0.0	-0.0	-0.0	-0.0	147792.703125	33025.12890625	2049.24365234375
0.386	-0.0	-0.0	-0.0	-0.0	-0.0	-0.0	3.1085376739501958	-3.7591376304626474	-511.129150390625	-0.0	-0.0	-0.0	-0.0	-0.0	-0.0	147858.375	33024.79296875	2106.1787109375
